HIERARCHY
ROOT mixamorig:Hips
{
	OFFSET 0.000000 201.639420 0.000000
	CHANNELS 6 Xposition Yposition Zposition Xrotation Yrotation Zrotation
	JOINT mixamorig:Spine
	{
		OFFSET 0.006200 19.524994 -2.481800
		CHANNELS 3 Xrotation Yrotation Zrotation
		JOINT mixamorig:Spine1
		{
			OFFSET -0.000900 22.835007 -2.825400
			CHANNELS 3 Xrotation Yrotation Zrotation
			JOINT mixamorig:Spine2
			{
				OFFSET -0.020600 26.552490 -3.193300
				CHANNELS 3 Xrotation Yrotation Zrotation
				JOINT mixamorig:Neck
				{
					OFFSET -0.060000 30.701813 1.352200
					CHANNELS 3 Xrotation Yrotation Zrotation
					JOINT mixamorig:Head
					{
						OFFSET -0.087200 22.547607 3.670900
						CHANNELS 3 Xrotation Yrotation Zrotation
						JOINT mixamorig:HeadTop_End
						{
							OFFSET -0.830600 40.355194 7.893500
							CHANNELS 3 Xrotation Yrotation Zrotation
							End Site
							{
								OFFSET 0.000000 30.592346 0.000000
							}
						}
						JOINT mixamorig:RightEye
						{
							OFFSET -6.302100 18.118591 16.197100
							CHANNELS 3 Xrotation Yrotation Zrotation
							End Site
							{
								OFFSET 0.000000 30.592346 0.000000
							}
						}
						JOINT mixamorig:LeftEye
						{
							OFFSET 6.741500 18.382690 16.401899
							CHANNELS 3 Xrotation Yrotation Zrotation
							End Site
							{
								OFFSET 0.000000 30.592346 0.000000
							}
						}
					}
				}
				JOINT mixamorig:LeftShoulder
				{
					OFFSET 11.924900 18.230499 1.425400
					CHANNELS 3 Xrotation Yrotation Zrotation
					JOINT mixamorig:LeftArm
					{
						OFFSET 25.435989 -0.697632 -5.229300
						CHANNELS 3 Xrotation Yrotation Zrotation
						JOINT mixamorig:LeftForeArm
						{
							OFFSET 54.684776 0.000000 0.000000
							CHANNELS 3 Xrotation Yrotation Zrotation
							JOINT mixamorig:LeftHand
							{
								OFFSET 55.098175 0.000000 0.000000
								CHANNELS 3 Xrotation Yrotation Zrotation
								JOINT mixamorig:LeftHandMiddle1
								{
									OFFSET 23.369751 0.000000 0.000000
									CHANNELS 3 Xrotation Yrotation Zrotation
									JOINT mixamorig:LeftHandMiddle2
									{
										OFFSET 6.378677 0.000000 0.000000
										CHANNELS 3 Xrotation Yrotation Zrotation
										JOINT mixamorig:LeftHandMiddle3
										{
											OFFSET 6.148331 0.000000 0.000000
											CHANNELS 3 Xrotation Yrotation Zrotation
											JOINT mixamorig:LeftHandMiddle4
											{
												OFFSET 6.582504 0.000000 0.000000
												CHANNELS 3 Xrotation Yrotation Zrotation
												End Site
												{
													OFFSET -1.168900 6.395691 1.028606
												}
											}
										}
									}
								}
								JOINT mixamorig:LeftHandThumb1
								{
									OFFSET 7.235672 -3.848206 5.434273
									CHANNELS 3 Xrotation Yrotation Zrotation
									JOINT mixamorig:LeftHandThumb2
									{
										OFFSET 6.568451 -3.792297 3.792300
										CHANNELS 3 Xrotation Yrotation Zrotation
										JOINT mixamorig:LeftHandThumb3
										{
											OFFSET 6.063080 -3.500519 3.500518
											CHANNELS 3 Xrotation Yrotation Zrotation
											JOINT mixamorig:LeftHandThumb4
											{
												OFFSET 4.793182 -2.767334 2.767349
												CHANNELS 3 Xrotation Yrotation Zrotation
												End Site
												{
													OFFSET 0.101639 6.054260 1.275483
												}
											}
										}
									}
								}
								JOINT mixamorig:LeftHandIndex1
								{
									OFFSET 23.101074 -0.309540 4.992809
									CHANNELS 3 Xrotation Yrotation Zrotation
									JOINT mixamorig:LeftHandIndex2
									{
										OFFSET 6.226883 0.000000 0.000000
										CHANNELS 3 Xrotation Yrotation Zrotation
										JOINT mixamorig:LeftHandIndex3
										{
											OFFSET 6.094330 0.000000 0.000000
											CHANNELS 3 Xrotation Yrotation Zrotation
											JOINT mixamorig:LeftHandIndex4
											{
												OFFSET 5.482605 0.000000 0.000000
												CHANNELS 3 Xrotation Yrotation Zrotation
												End Site
												{
													OFFSET -1.427902 5.233032 0.797164
												}
											}
										}
									}
								}
								JOINT mixamorig:LeftHandRing1
								{
									OFFSET 22.299240 0.021149 -3.964172
									CHANNELS 3 Xrotation Yrotation Zrotation
									JOINT mixamorig:LeftHandRing2
									{
										OFFSET 6.321869 0.000000 0.000000
										CHANNELS 3 Xrotation Yrotation Zrotation
										JOINT mixamorig:LeftHandRing3
										{
											OFFSET 5.899796 0.000000 0.000000
											CHANNELS 3 Xrotation Yrotation Zrotation
											JOINT mixamorig:LeftHandRing4
											{
												OFFSET 6.517899 0.000000 0.000000
												CHANNELS 3 Xrotation Yrotation Zrotation
												End Site
												{
													OFFSET -1.637299 6.232208 0.980890
												}
											}
										}
									}
								}
								JOINT mixamorig:LeftHandPinky1
								{
									OFFSET 20.463791 -0.302338 -8.562233
									CHANNELS 3 Xrotation Yrotation Zrotation
									JOINT mixamorig:LeftHandPinky2
									{
										OFFSET 6.908646 0.000000 0.000000
										CHANNELS 3 Xrotation Yrotation Zrotation
										JOINT mixamorig:LeftHandPinky3
										{
											OFFSET 4.622849 0.000000 0.000000
											CHANNELS 3 Xrotation Yrotation Zrotation
											JOINT mixamorig:LeftHandPinky4
											{
												OFFSET 5.216080 0.000000 0.000000
												CHANNELS 3 Xrotation Yrotation Zrotation
												End Site
												{
													OFFSET -0.606308 5.116241 0.814926
												}
											}
										}
									}
								}
							}
						}
					}
				}
				JOINT mixamorig:RightShoulder
				{
					OFFSET -12.001300 18.284088 1.348900
					CHANNELS 3 Xrotation Yrotation Zrotation
					JOINT mixamorig:RightArm
					{
						OFFSET -25.308500 -0.751312 -5.164599
						CHANNELS 3 Xrotation Yrotation Zrotation
						JOINT mixamorig:RightForeArm
						{
							OFFSET -54.684429 0.000000 0.000000
							CHANNELS 3 Xrotation Yrotation Zrotation
							JOINT mixamorig:RightHand
							{
								OFFSET -55.150291 0.000000 0.000000
								CHANNELS 3 Xrotation Yrotation Zrotation
								JOINT mixamorig:RightHandMiddle1
								{
									OFFSET -23.317566 0.000000 0.000000
									CHANNELS 3 Xrotation Yrotation Zrotation
									JOINT mixamorig:RightHandMiddle2
									{
										OFFSET -6.378403 0.000000 0.000000
										CHANNELS 3 Xrotation Yrotation Zrotation
										JOINT mixamorig:RightHandMiddle3
										{
											OFFSET -6.148193 0.000000 0.000000
											CHANNELS 3 Xrotation Yrotation Zrotation
											JOINT mixamorig:RightHandMiddle4
											{
												OFFSET -6.583389 0.000000 0.000000
												CHANNELS 3 Xrotation Yrotation Zrotation
												End Site
												{
													OFFSET 1.171692 6.395905 1.029786
												}
											}
										}
									}
								}
								JOINT mixamorig:RightHandThumb1
								{
									OFFSET -7.190521 -3.860474 5.435846
									CHANNELS 3 Xrotation Yrotation Zrotation
									JOINT mixamorig:RightHandThumb2
									{
										OFFSET -6.567429 -3.791718 3.791708
										CHANNELS 3 Xrotation Yrotation Zrotation
										JOINT mixamorig:RightHandThumb3
										{
											OFFSET -6.062469 -3.500153 3.500166
											CHANNELS 3 Xrotation Yrotation Zrotation
											JOINT mixamorig:RightHandThumb4
											{
												OFFSET -4.792618 -2.767029 2.767022
												CHANNELS 3 Xrotation Yrotation Zrotation
												End Site
												{
													OFFSET -0.100327 6.053253 1.276754
												}
											}
										}
									}
								}
								JOINT mixamorig:RightHandIndex1
								{
									OFFSET -23.048981 -0.310791 4.992554
									CHANNELS 3 Xrotation Yrotation Zrotation
									JOINT mixamorig:RightHandIndex2
									{
										OFFSET -6.227539 0.000000 0.000000
										CHANNELS 3 Xrotation Yrotation Zrotation
										JOINT mixamorig:RightHandIndex3
										{
											OFFSET -6.095047 0.000000 0.000000
											CHANNELS 3 Xrotation Yrotation Zrotation
											JOINT mixamorig:RightHandIndex4
											{
												OFFSET -5.484772 0.000000 0.000000
												CHANNELS 3 Xrotation Yrotation Zrotation
												End Site
												{
													OFFSET 1.420593 5.237305 0.797056
												}
											}
										}
									}
								}
								JOINT mixamorig:RightHandRing1
								{
									OFFSET -22.246323 0.020569 -3.963762
									CHANNELS 3 Xrotation Yrotation Zrotation
									JOINT mixamorig:RightHandRing2
									{
										OFFSET -6.322128 0.000000 0.000000
										CHANNELS 3 Xrotation Yrotation Zrotation
										JOINT mixamorig:RightHandRing3
										{
											OFFSET -5.900024 0.000000 0.000000
											CHANNELS 3 Xrotation Yrotation Zrotation
											JOINT mixamorig:RightHandRing4
											{
												OFFSET -6.518356 0.000000 0.000000
												CHANNELS 3 Xrotation Yrotation Zrotation
												End Site
												{
													OFFSET 1.636398 6.232697 0.982186
												}
											}
										}
									}
								}
								JOINT mixamorig:RightHandPinky1
								{
									OFFSET -20.411011 -0.303314 -8.561701
									CHANNELS 3 Xrotation Yrotation Zrotation
									JOINT mixamorig:RightHandPinky2
									{
										OFFSET -6.907349 0.000000 0.000000
										CHANNELS 3 Xrotation Yrotation Zrotation
										JOINT mixamorig:RightHandPinky3
										{
											OFFSET -4.623840 0.000000 0.000000
											CHANNELS 3 Xrotation Yrotation Zrotation
											JOINT mixamorig:RightHandPinky4
											{
												OFFSET -5.218353 0.000000 0.000000
												CHANNELS 3 Xrotation Yrotation Zrotation
												End Site
												{
													OFFSET 0.602097 5.118835 0.816273
												}
											}
										}
									}
								}
							}
						}
					}
				}
			}
		}
	}
	JOINT mixamorig:LeftUpLeg
	{
		OFFSET 18.168400 -13.561905 -0.039000
		CHANNELS 3 Xrotation Yrotation Zrotation
		JOINT mixamorig:LeftLeg
		{
			OFFSET 0.577358 -80.825211 -3.695000
			CHANNELS 3 Xrotation Yrotation Zrotation
			JOINT mixamorig:LeftFoot
			{
				OFFSET -0.577356 -83.370262 -6.520700
				CHANNELS 3 Xrotation Yrotation Zrotation
				JOINT mixamorig:LeftToeBase
				{
					OFFSET 0.750401 -20.798306 25.135401
					CHANNELS 3 Xrotation Yrotation Zrotation
					JOINT mixamorig:LeftToe_End
					{
						OFFSET -0.000500 0.001200 19.917799
						CHANNELS 3 Xrotation Yrotation Zrotation
						End Site
						{
							OFFSET 0.000000 19.917805 0.000000
						}
					}
				}
			}
		}
	}
	JOINT mixamorig:RightUpLeg
	{
		OFFSET -18.162500 -13.585098 -0.041000
		CHANNELS 3 Xrotation Yrotation Zrotation
		JOINT mixamorig:RightLeg
		{
			OFFSET -0.595024 -80.945297 -3.631900
			CHANNELS 3 Xrotation Yrotation Zrotation
			JOINT mixamorig:RightFoot
			{
				OFFSET 0.595024 -83.218193 -6.561200
				CHANNELS 3 Xrotation Yrotation Zrotation
				JOINT mixamorig:RightToeBase
				{
					OFFSET -0.753601 -20.807106 25.115000
					CHANNELS 3 Xrotation Yrotation Zrotation
					JOINT mixamorig:RightToe_End
					{
						OFFSET 0.000299 0.001700 19.918200
						CHANNELS 3 Xrotation Yrotation Zrotation
						End Site
						{
							OFFSET 0.000000 19.918203 0.000000
						}
					}
				}
			}
		}
	}
}
MOTION
Frames: 4
Frame Time: 0.033333
-1.099542 210.969070 15.093399 89.449325 1.035669 4.190230 -1.165028 0.628732 -0.539403 -2.316034 1.317258 -1.535884 -2.316052 1.317257 -1.535886 -9.789801 1.583974 -0.348993 2.502137 5.858926 -13.077553 -0.000001 0.000000 -0.000000 -0.000001 0.000000 -0.000000 -0.000001 0.000000 -0.000000 0.301158 -2.573215 -7.759589 5.323429 18.969189 -23.535490 -11.597139 -135.484056 -0.905997 45.666898 7.447718 46.611909 -0.121298 5.897102 -58.569063 -4.707885 1.409313 -40.222267 0.000003 -0.000001 -0.000003 -0.000002 -0.000001 0.000002 -38.148878 -1.127665 -33.994743 1.840527 3.498827 6.597493 0.000011 -0.000001 0.000000 0.000001 -0.000001 0.000002 2.112814 4.795202 -56.326521 -7.601741 3.595336 -42.860725 -0.000001 0.000012 -0.000007 0.000000 -0.000000 -0.000001 -0.196638 11.272864 -52.037511 -0.341165 -0.393325 -62.474265 -0.000004 0.000004 -0.000004 -0.000000 -0.000001 0.000002 2.006844 5.698024 -66.672407 1.311624 -6.616067 -37.603910 -0.000010 -0.000002 0.000004 -0.000002 -0.000000 0.000001 0.363584 1.823640 6.234475 -10.487492 -31.902471 17.940301 -0.030824 139.696165 -0.047174 45.751732 -8.553536 -34.714676 -3.341713 -2.993744 14.939743 -5.529919 -2.264017 60.126688 0.000001 -0.000005 0.000005 -0.000001 0.000000 0.000001 -15.353645 3.914411 -18.094853 4.826565 -12.354731 -1.042351 0.000008 0.000036 0.000008 0.000000 0.000001 0.000000 -9.789331 -1.377623 26.465084 -7.604402 -0.539738 49.976163 0.000003 0.000009 -0.000005 0.000002 0.000001 -0.000001 -3.007570 -8.601267 10.695927 -2.275491 8.105800 77.637292 -0.000001 -0.000004 0.000002 0.000000 0.000000 0.000000 3.434064 -5.534634 22.479850 -0.814774 10.644937 54.511002 0.000004 -0.000001 -0.000007 -0.000003 0.000000 0.000001 -14.300878 1.959088 8.344641 21.040454 -0.022051 -0.779617 17.983337 -0.251958 -15.200157 -5.689279 -0.035730 0.075045 0.000000 0.000000 0.000000 -29.946234 -53.666056 -31.508595 18.701932 -0.179240 0.377411 11.209546 40.426445 20.077047 2.666024 -0.203807 0.459004 0.000000 -0.000001 0.000001 
-1.102818 211.033386 15.076324 89.426376 1.029682 4.217068 -1.157942 0.642899 -0.536533 -2.301897 1.344655 -1.517199 -2.301861 1.344653 -1.517198 -10.017178 1.590680 -0.290128 2.538485 5.913938 -13.218376 0.000001 -0.000000 0.000001 0.000001 -0.000000 0.000001 0.000001 -0.000000 0.000001 0.300351 -2.517161 -7.770264 5.244158 18.738341 -23.659284 -11.610846 -135.300570 -0.911580 45.709941 7.303818 46.583741 -0.076367 5.920031 -58.526286 -4.699071 1.410075 -40.039126 0.000004 -0.000001 -0.000002 0.000002 -0.000000 -0.000001 -38.203789 -1.184398 -34.059722 1.863471 3.554358 6.583190 0.000007 0.000002 -0.000001 -0.000001 -0.000000 -0.000004 2.125586 4.823129 -56.180150 -7.590051 3.583222 -42.613741 -0.000003 0.000011 -0.000006 -0.000002 0.000000 -0.000001 -0.406213 11.304866 -51.767646 -0.346019 -0.385295 -62.365576 -0.000002 0.000004 -0.000004 -0.000000 0.000000 -0.000001 1.894142 5.664674 -66.767476 1.308183 -6.606740 -37.513100 -0.000001 -0.000003 -0.000003 -0.000001 0.000000 0.000002 0.364655 1.983890 6.282215 -10.828591 -32.169464 18.274846 -0.031243 139.908967 -0.046343 46.017761 -8.413692 -34.377452 -3.739622 -2.462930 20.648674 -5.786348 -2.130933 64.791318 0.000000 -0.000005 0.000005 0.000001 0.000001 -0.000000 -15.590395 4.352567 -17.853227 4.787433 -12.270174 -1.059481 0.000010 0.000037 0.000008 0.000000 -0.000000 0.000000 -10.202893 -0.755112 29.359800 -7.461942 -0.555780 51.986762 -0.000000 0.000008 -0.000005 -0.000001 -0.000000 -0.000001 -3.162437 -8.579454 14.648201 -2.281169 8.109835 77.701154 -0.000001 -0.000004 0.000006 -0.000001 0.000001 0.000003 3.625937 -5.880042 23.319772 -0.662505 10.502494 53.143171 0.000000 -0.000001 -0.000006 -0.000003 0.000000 0.000001 -14.294305 2.012069 8.345719 20.965518 -0.061538 -0.777545 18.037761 -0.355923 -15.635812 -5.691385 -0.035748 0.075049 0.000002 0.000000 0.000000 -29.695214 -53.342739 -31.216939 18.682330 -0.167980 0.377571 10.944111 40.156892 20.381909 2.641718 -0.203671 0.458972 0.000001 -0.000001 0.000000 
-1.139318 211.158981 15.074371 89.359495 1.095500 4.267195 -1.141151 0.639769 -0.540029 -2.268588 1.337919 -1.516008 -2.268589 1.337922 -1.516007 -10.285099 1.613410 -0.253261 2.566073 6.002260 -13.336241 0.000000 -0.000001 0.000001 0.000000 -0.000001 0.000001 0.000000 -0.000001 0.000001 0.300161 -2.469907 -7.780711 5.135334 18.465001 -23.791707 -11.610208 -135.038099 -0.903361 45.782485 7.130086 46.629947 0.013231 5.960758 -58.414537 -4.690146 1.410815 -39.853286 0.000003 -0.000001 -0.000001 -0.000002 -0.000001 -0.000001 -38.180109 -1.138377 -34.051358 1.875833 3.584243 6.575453 0.000005 -0.000004 -0.000001 0.000001 0.000003 0.000002 2.124455 4.833018 -56.112436 -7.582837 3.575209 -42.446798 0.000001 0.000012 -0.000003 -0.000004 -0.000000 -0.000001 -0.711178 11.338411 -51.457518 -0.350842 -0.377305 -62.257243 -0.000004 0.000004 0.000001 -0.000001 -0.000000 -0.000000 1.856675 5.631297 -67.020787 1.305594 -6.599605 -37.443688 -0.000004 -0.000002 -0.000002 -0.000002 -0.000001 0.000001 0.360026 2.219715 6.414915 -11.418213 -32.526710 18.875477 -0.031772 140.108080 -0.044913 46.470336 -8.026224 -33.880180 -4.278019 -1.839719 26.930087 -6.082969 -2.006720 69.971750 0.000001 -0.000005 0.000002 0.000001 -0.000000 0.000001 -15.886689 4.878053 -17.541466 4.723865 -12.133080 -1.087855 0.000009 0.000036 0.000008 0.000000 0.000001 0.000000 -10.762559 0.014770 32.720189 -7.263980 -0.548282 53.889253 0.000001 0.000007 -0.000005 -0.000000 -0.000000 -0.000001 -3.419606 -8.506482 18.915022 -2.284675 8.112331 77.740571 0.000000 -0.000004 0.000005 -0.000003 0.000001 0.000000 3.793741 -6.153049 24.029277 -0.498786 10.348293 51.696496 0.000000 -0.000000 -0.000006 0.000000 0.000000 -0.000000 -14.295162 1.937413 8.302062 20.941845 -0.090311 -0.776884 18.037980 -0.467244 -15.845385 -5.786560 -0.035930 0.075248 -0.000001 0.000000 -0.000000 -29.334973 -52.920350 -30.852695 18.639421 -0.157896 0.376292 10.627638 39.718913 20.734506 2.633735 -0.203613 0.459012 -0.000000 0.000000 0.000002 
-1.208513 211.320221 15.082153 89.278618 1.257421 4.352856 -1.139606 0.600055 -0.556665 -2.266173 1.258684 -1.539798 -2.266173 1.258685 -1.539798 -10.518867 1.658173 -0.318396 2.672420 6.035229 -13.387265 -0.000001 0.000000 -0.000001 -0.000001 0.000000 -0.000001 -0.000001 0.000000 -0.000001 0.298616 -2.443492 -7.810910 5.023772 18.271572 -23.912036 -11.582342 -134.728118 -0.863238 45.870301 6.909025 46.691115 0.072766 6.014284 -58.053944 -4.685637 1.411228 -39.759296 0.000004 -0.000001 -0.000002 -0.000000 0.000000 0.000000 -38.024315 -0.812527 -34.031646 1.837860 3.492136 6.599196 0.000008 -0.000004 -0.000002 0.000002 0.000001 0.000004 2.102761 4.844095 -55.903128 -7.582148 3.573191 -42.396395 -0.000003 0.000011 -0.000003 -0.000000 0.000000 -0.000001 -1.155453 11.378793 -50.997471 -0.352704 -0.374110 -62.215216 -0.000003 0.000003 -0.000005 -0.000001 -0.000002 0.000001 1.920700 5.614372 -67.331738 1.299927 -6.584853 -37.298833 -0.000002 -0.000003 -0.000001 -0.000001 0.000000 0.000000 0.344286 2.468185 6.653664 -12.292531 -32.722412 19.857773 -0.031584 140.128830 -0.043789 47.086132 -7.248519 -32.930674 -4.767587 -1.295296 33.378520 -6.411260 -1.904341 75.521251 0.000002 -0.000006 -0.000001 -0.000001 0.000001 0.000000 -16.100028 5.223768 -17.271066 4.707330 -12.096467 -1.094782 0.000008 0.000035 0.000008 0.000001 0.000000 0.000000 -11.272894 0.745173 36.170312 -7.091759 -0.563979 56.301348 0.000004 0.000007 -0.000007 -0.000000 0.000001 -0.000001 -3.734471 -8.405057 23.312542 -2.314966 8.133609 78.078706 -0.000004 -0.000004 0.000004 -0.000001 0.000001 0.000001 3.903083 -6.342758 24.272027 -0.344564 10.267449 50.853924 -0.000003 -0.000000 -0.000006 0.000000 -0.000000 0.000000 -14.317536 1.659173 8.199440 20.966442 -0.114445 -0.777540 17.883838 -0.744851 -15.912106 -6.186676 -0.036651 0.076080 -0.000001 0.000000 -0.000000 -28.879136 -52.364410 -30.416547 18.560708 -0.150615 0.373617 10.260912 38.995934 21.145369 2.670846 -0.203829 0.459246 -0.000000 0.000000 0.000000 
